<?xml version="1.0" standalone="no"?>
<!DOCTYPE svg PUBLIC "-//W3C//DTD SVG 20010904//EN"
 "http://www.w3.org/TR/2001/REC-SVG-20010904/DTD/svg10.dtd">
<svg version="1.0" xmlns="http://www.w3.org/2000/svg"
 width="849.000000pt" height="1000.000000pt" viewBox="0 0 849.000000 1000.000000"
 preserveAspectRatio="xMidYMid meet">

<g transform="translate(0.000000,1000.000000) scale(0.100000,-0.100000)"
fill="#000000" stroke="none">
<path d="M5120 9953 c-30 -13 -69 -38 -87 -55 -28 -27 -36 -30 -70 -23 -21 3
-67 6 -102 5 -70 -1 -112 14 -150 54 -24 26 -27 26 -170 26 -99 0 -168 -5
-216 -16 -57 -13 -163 -18 -555 -24 -273 -4 -511 -12 -545 -19 -33 -6 -114
-15 -180 -21 -66 -5 -142 -14 -170 -20 -27 -5 -124 -12 -215 -15 -134 -5 -174
-9 -213 -26 -51 -21 -107 -18 -128 7 -9 11 -46 14 -163 14 -177 0 -359 14
-442 33 -43 10 -89 12 -174 7 -106 -7 -352 -44 -371 -56 -4 -2 -77 -9 -161
-14 -102 -7 -174 -16 -216 -30 -35 -11 -85 -20 -110 -20 -38 0 -72 -13 -184
-71 -131 -67 -143 -76 -233 -171 -99 -105 -102 -109 -131 -248 -9 -41 -24 -97
-35 -125 -14 -36 -19 -76 -19 -141 0 -79 -3 -95 -22 -120 -12 -16 -27 -32 -33
-36 -6 -4 3 -20 23 -41 l32 -33 0 -152 c0 -133 -2 -156 -20 -187 -25 -45 -25
-70 0 -102 17 -22 20 -41 20 -124 0 -54 4 -101 10 -104 13 -8 13 -58 0 -71 -5
-5 -10 -74 -11 -153 l-2 -145 37 -33 c33 -31 40 -33 106 -33 77 0 110 12 149
54 14 14 30 26 37 26 19 0 24 37 24 205 l0 161 41 39 c22 22 54 59 70 81 15
23 54 59 85 79 l57 38 -6 139 -6 140 25 23 c14 13 42 26 63 30 26 4 50 19 77
46 42 43 55 46 107 24 24 -10 70 -15 136 -15 90 0 102 2 128 24 15 13 45 28
65 34 20 5 52 22 71 36 19 14 43 26 54 26 11 0 31 8 44 18 35 26 76 42 108 42
16 0 40 9 54 20 23 18 40 20 182 20 136 0 161 -3 197 -20 23 -11 46 -20 51
-20 22 0 70 -46 87 -84 22 -50 53 -80 103 -96 22 -7 55 -31 80 -58 80 -88 103
-107 150 -119 57 -15 87 -46 87 -89 0 -37 -18 -48 -56 -34 -42 16 -75 12 -81
-10 -3 -13 -20 -24 -47 -32 -83 -24 -98 -57 -60 -134 37 -76 29 -107 -47 -186
l-60 -63 6 -50 c8 -65 8 -139 0 -197 -6 -41 -4 -51 19 -81 15 -20 26 -47 26
-66 0 -17 10 -57 23 -89 22 -53 24 -80 18 -188 0 -12 -13 -32 -27 -45 -14 -13
-35 -32 -45 -41 -29 -28 -23 -57 20 -98 48 -43 62 -76 54 -124 -3 -20 -1 -42
5 -49 6 -7 16 -34 22 -61 6 -26 20 -60 32 -76 17 -23 21 -44 22 -108 1 -73 -1
-83 -24 -107 -22 -24 -26 -38 -32 -138 -4 -62 -13 -139 -19 -172 -17 -88 -23
-619 -8 -673 11 -39 10 -45 -15 -82 -25 -38 -27 -47 -24 -135 2 -87 0 -96 -21
-119 -16 -17 -25 -41 -29 -76 -4 -43 -1 -56 22 -88 14 -21 26 -45 26 -53 0 -8
16 -31 35 -51 39 -42 75 -108 75 -136 0 -18 -78 -92 -97 -92 -21 0 -61 -26
-76 -50 -9 -14 -22 -33 -29 -42 -13 -18 -14 -13 36 -105 40 -75 36 -73 164
-73 98 0 122 -3 163 -22 55 -26 67 -49 45 -83 -20 -31 -58 -33 -93 -5 -20 16
-41 20 -100 20 l-74 0 -44 -44 c-24 -24 -55 -67 -69 -95 -25 -48 -26 -58 -26
-214 0 -136 -3 -170 -17 -198 -15 -28 -18 -61 -18 -194 0 -141 -2 -163 -19
-188 -11 -16 -23 -51 -27 -79 -5 -29 -16 -56 -26 -63 -16 -12 -18 -30 -18
-138 l0 -125 -94 -96 c-52 -53 -100 -96 -106 -96 -21 0 -33 -44 -43 -157 -9
-101 -13 -118 -41 -160 -31 -47 -35 -59 -31 -101 1 -13 -8 -34 -20 -47 -12
-13 -24 -42 -27 -67 -3 -23 -11 -50 -17 -58 -26 -35 -36 -62 -36 -95 0 -26 -9
-45 -34 -73 -19 -21 -38 -50 -41 -64 -4 -15 -15 -34 -26 -44 -16 -15 -19 -31
-19 -114 0 -93 -14 -149 -41 -165 -5 -4 -16 -21 -23 -40 -8 -18 -24 -38 -35
-45 -17 -8 -21 -20 -21 -58 0 -37 -6 -55 -28 -82 -15 -19 -34 -54 -42 -77 -7
-24 -21 -50 -32 -59 -14 -13 -18 -32 -18 -81 0 -55 -4 -71 -30 -108 -17 -25
-30 -57 -30 -74 0 -17 -9 -46 -20 -66 -11 -20 -20 -47 -20 -61 0 -14 -7 -27
-18 -31 -38 -13 -62 -46 -62 -84 0 -30 -6 -42 -30 -59 -38 -27 -42 -81 -7
-122 12 -15 35 -43 50 -62 18 -24 36 -36 52 -36 14 0 39 -14 59 -35 20 -19 44
-35 54 -35 22 0 54 -34 72 -75 20 -47 49 -55 196 -55 l131 0 46 -49 c55 -59
104 -80 142 -63 51 24 131 7 165 -33 8 -10 31 -15 65 -15 50 0 85 -19 85 -47
0 -5 11 -20 24 -32 l25 -23 29 21 c45 32 98 28 130 -9 20 -23 35 -30 62 -30
25 0 49 -10 76 -30 49 -37 68 -37 120 -2 27 19 56 29 86 30 40 3 51 -2 98 -40
81 -66 78 -64 92 -46 7 9 33 33 57 53 l44 36 140 -3 140 -2 28 34 c24 29 32
32 60 26 18 -3 40 -13 50 -22 15 -14 20 -13 50 5 65 40 99 21 99 -57 0 -27 7
-45 23 -60 29 -27 49 -28 72 -2 22 24 48 26 65 5 23 -27 103 -58 163 -63 31
-2 60 -8 63 -13 7 -12 81 -11 89 1 8 13 72 13 80 0 3 -6 34 -10 69 -10 50 0
67 4 81 20 10 11 24 20 32 20 7 0 16 8 20 18 3 9 28 43 54 74 61 70 64 106 16
158 -42 47 -123 102 -143 98 -10 -2 -29 15 -49 42 -17 25 -41 50 -53 56 -46
23 -62 46 -62 89 0 33 -6 47 -30 70 -16 16 -30 34 -30 41 0 6 -7 17 -15 24 -8
6 -30 41 -50 76 -27 50 -35 76 -35 115 0 53 -12 86 -40 106 -10 7 -29 37 -44
67 -15 31 -31 58 -36 61 -4 3 -11 17 -14 31 -4 14 -31 50 -61 80 -30 29 -57
66 -61 81 -4 15 -16 39 -28 53 -12 14 -34 44 -49 68 -16 23 -38 47 -50 51 -12
5 -42 25 -66 45 -23 20 -51 36 -60 36 -9 0 -76 58 -149 130 -124 122 -132 132
-132 168 0 31 -9 51 -50 101 -28 34 -50 68 -50 75 0 19 -41 54 -73 61 -20 5
-40 26 -71 74 -49 74 -60 85 -96 96 -14 4 -38 16 -53 27 -15 11 -47 22 -70 25
-97 13 -107 87 -17 131 59 29 73 42 90 78 9 22 24 45 33 53 14 11 17 33 17
116 0 89 2 104 20 120 25 23 25 50 0 82 -14 18 -20 41 -20 74 0 26 -5 51 -10
54 -6 3 -10 26 -10 51 l0 44 148 0 c135 0 206 10 228 33 13 13 60 7 102 -13
22 -11 46 -20 52 -20 10 0 17 -3 71 -31 17 -8 25 -7 43 10 16 15 36 21 72 22
63 1 104 25 128 75 10 21 25 47 34 57 11 13 17 39 17 84 1 58 4 69 28 89 34
29 34 39 -3 81 -16 18 -30 43 -30 54 0 25 23 71 44 88 10 9 16 30 16 58 0 38
-7 52 -50 106 -82 100 -84 103 -103 113 -13 7 -20 27 -24 67 -5 51 -3 60 21
92 15 20 26 43 23 53 -5 22 18 68 55 111 28 32 30 39 26 99 -4 57 -8 67 -35
91 -17 14 -38 40 -47 57 -25 51 -84 104 -116 104 -16 0 -32 5 -35 10 -3 6 -19
10 -34 10 -28 0 -55 22 -75 62 -18 35 -50 45 -136 43 -67 -2 -84 -6 -103 -23
-13 -12 -28 -22 -35 -22 -6 0 -27 -9 -47 -20 -29 -17 -54 -20 -143 -20 l-108
0 -32 33 c-42 43 -40 69 8 124 33 38 40 53 40 89 0 23 -4 46 -10 49 -18 11
-11 71 10 90 18 16 20 31 20 120 0 89 -2 104 -20 120 -23 21 -26 52 -8 90 9
21 9 31 0 46 -17 27 -15 50 8 79 18 23 20 42 20 236 0 188 2 212 18 230 25 27
33 51 38 109 4 48 -14 106 -36 120 -5 3 -18 26 -29 50 -11 25 -26 45 -34 45
-8 0 -22 9 -32 20 -24 26 -28 26 -81 -11 -25 -17 -52 -29 -62 -27 -26 5 -28
60 -2 83 15 14 20 30 20 71 0 35 7 66 20 89 19 33 20 54 20 294 0 245 1 259
20 276 17 16 20 31 20 110 l0 91 36 35 c19 18 42 49 51 67 17 36 17 36 -59
116 -16 15 -28 36 -28 45 0 9 -9 27 -20 41 -17 22 -20 41 -20 143 0 127 6 146
67 204 12 12 25 34 29 50 4 15 15 40 26 55 11 16 15 29 8 33 -13 8 -13 75 0
75 6 0 10 6 10 13 0 7 22 35 50 62 l50 49 49 -13 c40 -10 53 -10 70 1 18 11
21 23 21 87 0 65 -3 78 -24 100 -35 38 -40 64 -16 86 19 17 21 17 58 -9 60
-41 92 -33 105 25 4 14 20 43 36 63 17 21 33 47 37 59 4 12 15 28 25 35 17 11
19 27 19 122 0 76 4 111 13 117 6 4 104 8 216 9 l204 0 26 31 c64 76 75 104
79 194 4 80 2 88 -19 108 -15 13 -36 21 -60 21 -31 0 -38 4 -43 26 -11 42 2
65 84 147 l78 77 110 0 c110 0 110 0 135 -30 19 -22 35 -30 59 -30 44 -1 66
-15 127 -81 46 -51 51 -61 51 -103 0 -40 -5 -50 -40 -83 -22 -21 -40 -45 -40
-54 0 -21 27 -74 45 -89 8 -7 15 -17 15 -23 0 -6 13 -25 30 -42 21 -22 33 -48
41 -90 7 -33 21 -70 32 -83 18 -20 19 -26 9 -56 -10 -27 -9 -38 3 -63 19 -38
30 -47 78 -63 21 -6 41 -18 44 -26 6 -15 88 -74 103 -74 5 0 18 -17 29 -37 20
-39 60 -75 98 -87 12 -4 38 -25 57 -46 l36 -40 0 -183 c0 -171 1 -185 20 -202
19 -17 20 -31 20 -227 l0 -209 110 -111 c121 -122 133 -148 88 -196 -20 -21
-23 -33 -21 -99 2 -78 -5 -102 -39 -139 -18 -20 -19 -35 -16 -217 l3 -196 48
-48 c39 -40 47 -55 47 -85 0 -20 -4 -39 -9 -42 -5 -4 -28 -40 -50 -82 l-41
-76 0 -168 c0 -151 -2 -173 -20 -205 -19 -33 -20 -54 -20 -295 0 -242 1 -262
20 -292 14 -23 20 -51 20 -94 0 -73 17 -94 84 -101 40 -5 53 -13 111 -74 l66
-68 -3 -68 -3 -68 -165 -1 c-91 0 -185 -4 -208 -9 -29 -5 -48 -3 -55 4 -13 13
-109 15 -123 3 -5 -5 -38 -19 -74 -31 -36 -13 -79 -36 -95 -52 -17 -16 -36
-29 -43 -29 -15 0 -78 -35 -119 -67 -33 -24 -33 -24 -33 -112 0 -112 16 -147
68 -157 44 -8 62 -20 62 -43 0 -10 11 -32 25 -51 24 -32 25 -41 25 -161 0 -75
4 -130 10 -134 6 -3 10 -20 10 -38 0 -50 43 -87 100 -87 44 0 48 -2 85 -52 22
-29 50 -63 62 -75 13 -12 23 -29 23 -37 0 -24 49 -57 76 -50 26 7 54 -10 54
-32 0 -7 -22 -34 -50 -60 l-50 -47 0 -75 c0 -59 4 -79 20 -99 11 -14 20 -33
20 -42 0 -10 14 -30 31 -47 76 -73 106 -171 78 -253 -9 -24 -9 -35 0 -44 6 -6
11 -28 11 -48 0 -31 9 -47 61 -103 44 -47 78 -100 120 -183 33 -65 59 -125 59
-135 0 -9 5 -20 10 -23 6 -3 10 -15 10 -26 0 -11 9 -41 21 -66 14 -30 19 -56
15 -77 -4 -24 1 -41 24 -75 17 -24 30 -51 30 -61 0 -9 14 -29 30 -45 17 -16
30 -33 30 -39 0 -5 20 -35 43 -65 57 -73 69 -96 62 -123 -7 -29 68 -151 105
-169 34 -18 70 -50 70 -64 0 -19 171 -185 191 -185 9 0 86 -67 171 -150 84
-82 160 -150 169 -150 22 0 96 -66 114 -101 8 -15 15 -44 15 -65 0 -24 8 -46
25 -65 13 -16 27 -45 31 -65 5 -25 25 -54 70 -100 56 -56 68 -64 101 -64 21 0
43 -4 48 -8 18 -12 75 -105 75 -121 0 -29 53 -91 104 -120 64 -36 110 -81 126
-124 49 -130 77 -159 157 -160 50 0 69 6 124 36 35 19 91 43 124 52 97 28 130
50 192 127 31 40 112 135 180 211 67 76 153 185 192 242 l70 104 -51 25 c-29
14 -60 26 -70 26 -32 0 -78 29 -78 50 0 25 -39 54 -102 77 -44 15 -54 24 -70
61 -14 31 -29 48 -56 60 -20 9 -46 24 -57 33 -11 9 -36 22 -56 28 -26 8 -102
79 -287 264 -139 140 -252 260 -252 269 0 17 -41 58 -59 58 -7 0 -38 24 -69
53 -31 30 -71 59 -89 66 -17 7 -41 23 -54 37 -12 13 -28 24 -34 24 -18 0 -41
31 -55 75 -7 22 -21 51 -30 65 -9 14 -24 37 -33 51 -9 15 -33 35 -54 45 -27
14 -41 29 -49 53 -10 32 -67 93 -108 116 -11 6 -19 23 -20 41 -1 17 -14 49
-29 71 -15 21 -27 48 -27 60 0 11 -7 26 -15 33 -17 14 -45 67 -45 87 0 7 -22
43 -50 78 -27 35 -50 71 -50 78 0 20 -28 73 -45 87 -8 7 -15 18 -15 24 0 7
-13 22 -30 34 -25 19 -30 29 -30 66 0 45 -20 95 -45 116 -8 7 -15 17 -15 23 0
5 -16 27 -35 49 l-36 39 7 85 c6 75 4 90 -14 127 -17 32 -23 67 -26 147 -3 58
-8 127 -11 154 -5 32 -3 56 6 72 16 31 3 72 -52 157 -22 33 -39 65 -39 72 0
14 -54 55 -73 55 -18 0 -32 17 -42 50 -4 14 -16 36 -26 49 -15 18 -19 41 -19
100 l0 76 50 53 50 53 0 544 c0 370 -3 546 -11 550 -10 7 -24 33 -93 172 -36
71 -48 145 -26 158 6 3 10 48 10 100 0 52 -4 97 -10 100 -19 12 -12 90 10 110
15 13 20 31 20 66 0 30 -8 62 -20 84 -16 28 -20 54 -20 119 0 70 3 86 20 101
19 17 20 31 20 265 0 234 -1 248 -20 265 -26 23 -26 72 0 105 26 34 26 103 0
140 -36 51 -60 120 -60 174 0 50 20 108 41 121 5 4 19 25 31 48 11 23 40 64
64 91 40 44 44 53 44 101 0 57 -10 71 -57 84 -19 5 -35 21 -53 57 -18 35 -34
52 -55 59 -51 17 -55 23 -55 84 0 46 5 66 26 97 33 48 41 54 79 54 22 0 41 11
69 40 21 22 44 40 51 40 12 0 39 29 93 99 16 22 22 43 22 82 0 48 -4 56 -44
99 -26 28 -49 64 -56 88 -6 23 -15 44 -20 47 -14 9 -40 66 -40 89 0 29 9 41
54 65 30 17 47 21 81 16 41 -7 45 -5 105 49 34 31 68 56 75 56 6 0 20 9 30 20
14 15 31 20 70 20 28 0 56 -5 62 -11 7 -7 23 2 52 30 l43 41 98 0 c55 0 102 4
105 10 3 6 30 10 60 10 30 0 57 5 60 10 3 6 17 10 30 10 13 0 26 4 29 9 3 4
33 9 67 9 34 1 67 6 72 11 18 18 68 13 118 -11 39 -19 48 -28 51 -54 2 -17 1
-41 -3 -55 -4 -13 -7 -60 -8 -104 0 -72 3 -86 32 -140 20 -37 40 -61 52 -63
11 -2 30 -13 42 -24 31 -29 113 -28 144 1 22 20 32 21 154 19 92 -2 137 1 153
10 30 17 98 18 117 2 21 -17 18 -70 -5 -100 -16 -21 -20 -41 -20 -126 0 -88
-3 -103 -20 -119 -14 -13 -20 -31 -20 -61 0 -24 -4 -45 -9 -48 -18 -12 -22
-86 -5 -121 13 -29 14 -39 3 -72 -8 -21 -21 -49 -31 -62 -28 -38 -23 -102 12
-158 32 -51 40 -111 19 -157 -9 -20 -8 -32 4 -59 9 -19 23 -40 32 -47 12 -10
15 -38 15 -139 0 -70 -4 -131 -9 -136 -5 -6 -18 -27 -29 -47 -18 -31 -19 -41
-9 -67 9 -24 9 -36 -1 -51 -6 -11 -12 -30 -12 -42 0 -13 -9 -34 -20 -48 -18
-23 -20 -42 -20 -228 0 -115 4 -211 10 -222 6 -11 15 -29 20 -40 13 -26 13
-56 -2 -80 -10 -16 -8 -26 10 -60 27 -52 28 -70 1 -117 -21 -37 -21 -53 -3
-156 4 -23 16 -45 33 -58 25 -20 26 -25 33 -162 12 -234 21 -309 42 -340 16
-23 17 -32 7 -53 -7 -16 -11 -96 -11 -223 l0 -197 28 -27 c15 -15 33 -27 39
-27 6 0 16 -7 23 -15 18 -21 77 -19 107 5 14 11 40 22 59 26 25 5 43 18 64 48
17 22 46 52 65 65 35 24 125 149 125 174 0 8 11 31 25 51 24 35 25 44 25 175
0 131 -1 140 -25 175 -17 26 -25 50 -25 81 0 35 -6 52 -30 78 -16 19 -30 39
-30 44 0 5 -13 22 -29 37 -16 16 -32 39 -36 53 -3 14 -16 38 -27 54 -18 24
-20 34 -12 56 5 15 18 29 29 31 29 6 63 41 70 73 4 15 13 33 20 39 21 17 45
69 45 95 0 13 -7 28 -15 35 -22 18 -19 93 5 146 18 39 19 49 9 79 -10 26 -10
43 -1 72 18 62 60 92 167 123 17 5 48 15 70 24 22 8 60 15 85 16 53 0 82 18
100 60 8 18 20 30 31 30 18 0 19 14 19 349 0 223 -4 352 -10 356 -5 3 -10 18
-10 32 0 14 -16 51 -36 83 -29 47 -38 74 -45 136 -7 62 -15 86 -43 128 -19 28
-38 62 -42 76 -3 14 -15 35 -25 48 -10 13 -23 39 -30 59 -6 20 -22 51 -35 71
-18 26 -24 48 -24 91 0 45 -7 70 -34 121 -48 90 -64 156 -74 291 -9 119 -7
114 -87 305 -8 18 -48 59 -92 95 -72 58 -84 64 -163 81 -62 13 -130 40 -250
98 -91 44 -214 95 -275 114 -60 19 -144 47 -185 62 -71 26 -88 28 -320 35
-286 10 -355 19 -470 61 -81 30 -93 32 -254 35 -158 4 -172 3 -198 -17 -34
-25 -40 -25 -63 0 -17 19 -30 20 -284 19 -261 -1 -267 -1 -321 -26z"/>
<path d="M6240 8745 c-26 -28 -27 -25 30 -120 21 -36 29 -63 30 -97 0 -50 0
-50 -73 -63 -32 -5 -42 -14 -65 -52 -15 -26 -44 -66 -64 -89 l-38 -41 0 -225
c0 -212 1 -226 20 -243 26 -23 26 -67 0 -90 -14 -13 -17 -22 -10 -29 5 -5 10
-17 10 -26 0 -9 9 -35 20 -58 11 -22 20 -52 20 -66 0 -14 5 -28 10 -31 6 -3
10 -28 10 -54 0 -35 -5 -53 -20 -66 -11 -10 -20 -29 -20 -41 0 -13 9 -39 20
-59 11 -20 20 -44 20 -55 0 -11 -9 -35 -20 -55 -19 -34 -20 -54 -20 -518 0
-473 4 -534 33 -563 4 -4 7 -95 7 -202 0 -179 -2 -196 -20 -219 -19 -25 -20
-41 -20 -375 l0 -349 51 -55 52 -54 66 0 c38 0 76 6 91 15 60 34 128 65 142
65 9 0 21 7 29 16 7 8 29 24 48 34 20 10 58 39 86 64 27 25 64 51 82 57 21 7
42 26 63 59 17 27 39 52 49 55 22 7 195 173 210 202 22 44 7 127 -31 165 -16
16 -18 27 -13 51 14 58 17 379 5 422 -12 40 -63 94 -89 95 -22 0 -40 32 -41
72 0 27 -6 40 -20 48 -34 18 -25 56 21 89 22 16 53 32 68 36 17 4 33 17 41 33
7 15 16 35 21 44 21 41 -5 120 -51 158 l-32 26 4 111 c2 94 6 115 23 135 29
33 45 65 45 87 0 11 5 23 10 26 11 7 14 58 3 69 -4 3 -8 14 -9 22 -4 25 -32
80 -49 94 -9 7 -15 29 -15 51 0 39 -9 62 -42 108 -10 13 -18 31 -18 39 0 9
-16 33 -37 54 -34 34 -36 41 -34 94 1 49 -2 59 -24 80 -29 27 -32 62 -7 90 29
32 45 72 37 91 -20 51 -16 75 24 138 17 25 20 50 20 163 1 153 -4 165 -104
261 -31 30 -61 65 -65 77 -5 12 -25 45 -45 72 -35 50 -60 62 -122 62 -24 0
-113 77 -113 98 0 5 -6 22 -14 37 -30 58 -133 76 -176 30z"/>
<path d="M1070 8318 c-11 -12 -20 -25 -20 -30 0 -4 -6 -8 -14 -8 -7 0 -22 -12
-32 -27 -9 -15 -26 -36 -36 -47 -10 -11 -18 -27 -18 -37 0 -9 -13 -33 -30 -54
-16 -21 -30 -45 -30 -53 0 -9 -7 -24 -16 -34 -13 -14 -16 -36 -15 -104 1 -47
6 -97 12 -111 8 -21 5 -33 -16 -63 -32 -46 -34 -104 -5 -120 12 -6 20 -21 20
-35 0 -14 -8 -29 -20 -35 -29 -16 -28 -129 1 -191 20 -39 21 -52 13 -111 -9
-60 -7 -70 11 -95 18 -25 20 -47 25 -283 5 -246 6 -257 28 -284 13 -18 22 -43
22 -64 0 -23 8 -44 22 -59 21 -23 22 -31 19 -177 -2 -139 -1 -156 18 -190 28
-49 28 -133 1 -181 -15 -26 -20 -54 -20 -104 0 -37 3 -71 7 -75 26 -26 39
-122 24 -176 -4 -15 -1 -37 8 -55 15 -31 124 -149 153 -165 34 -20 151 -29
260 -20 122 10 152 23 173 74 8 18 21 38 29 46 18 14 22 65 6 75 -6 4 -32 39
-59 78 -27 40 -63 82 -80 95 -49 36 -42 74 29 158 19 23 42 54 50 70 8 16 26
43 40 59 15 17 33 46 40 65 7 19 22 47 32 62 16 23 18 48 18 196 0 141 -3 175
-17 199 -15 27 -15 32 0 63 15 28 17 70 17 282 l0 248 -26 39 c-18 28 -25 50
-23 78 3 43 -7 81 -26 103 -7 8 -21 35 -31 60 -10 25 -26 56 -35 70 -45 64
-45 208 1 239 14 10 20 25 20 53 0 24 8 49 19 64 18 23 18 28 5 59 -12 29 -12
40 2 82 15 47 15 51 -5 86 -12 21 -21 52 -21 69 0 21 -12 45 -36 74 l-35 44
-146 0 -145 0 -28 30 c-15 17 -33 30 -39 30 -6 0 -11 4 -11 8 0 14 -40 52 -55
52 -8 0 -23 -10 -35 -22z"/>
<path d="M3926 8180 c-20 -22 -36 -43 -36 -46 0 -4 14 -22 30 -41 30 -34 31
-36 28 -131 l-3 -97 -67 -5 c-64 -5 -70 -7 -118 -53 -27 -26 -50 -52 -50 -57
0 -6 -21 -10 -47 -10 -49 0 -113 29 -113 51 0 6 -9 24 -21 40 -20 28 -22 29
-110 29 -89 0 -91 -1 -135 -36 l-44 -36 0 -114 c0 -64 4 -115 10 -119 6 -3 10
-15 10 -25 0 -11 9 -34 20 -52 11 -18 20 -44 20 -58 0 -26 -22 -95 -33 -106
-4 -4 -7 -123 -7 -265 0 -230 2 -262 18 -291 10 -18 24 -60 32 -93 16 -67 28
-85 60 -85 11 0 38 -9 60 -20 32 -16 44 -18 72 -8 18 6 37 15 43 19 5 5 66 9
137 9 109 0 133 3 163 20 51 29 95 26 139 -9 40 -32 108 -48 148 -36 12 4 40
23 61 41 20 19 44 34 52 34 8 0 32 16 54 35 32 29 46 35 83 35 54 0 117 37
172 101 53 61 57 119 14 204 -17 33 -39 72 -49 87 -17 24 -19 48 -19 294 l0
268 -67 65 c-71 68 -106 121 -97 144 3 8 -4 31 -15 51 -12 20 -21 54 -21 75 0
46 -11 56 -70 66 -25 4 -52 14 -61 22 -9 8 -30 18 -45 22 -20 5 -35 20 -50 48
-30 61 -43 73 -79 73 -25 0 -41 -9 -69 -40z"/>
<path d="M3560 6201 c-8 -5 -28 -15 -45 -22 -29 -13 -105 -86 -105 -100 0 -4
-15 -16 -32 -26 -18 -11 -39 -33 -47 -49 -7 -16 -17 -37 -22 -47 -6 -11 -5
-25 1 -38 13 -22 11 -88 -2 -105 -10 -14 5 -57 32 -92 16 -20 20 -40 20 -107
0 -69 3 -85 20 -100 11 -10 26 -37 32 -59 19 -64 48 -103 88 -114 44 -14 731
-14 782 -1 44 11 103 73 92 98 -23 52 -8 155 26 176 5 3 22 34 38 68 28 60 29
67 26 193 -2 110 -6 138 -23 172 -12 23 -21 47 -21 55 0 24 -35 47 -73 47 -20
0 -37 -4 -37 -10 0 -18 -78 -11 -115 10 -20 11 -42 20 -49 20 -7 0 -25 9 -39
21 -22 16 -30 18 -48 9 -12 -7 -36 -9 -53 -6 -54 10 -430 16 -446 7z"/>
<path d="M169 5743 c-8 -16 -16 -30 -19 -33 -27 -27 -30 -61 -30 -400 0 -363
0 -366 43 -414 21 -25 21 -27 -2 -79 -11 -23 -22 -62 -25 -87 -3 -25 -8 -66
-12 -92 -5 -43 -3 -52 25 -90 17 -23 31 -47 31 -53 0 -6 -14 -27 -31 -46 l-30
-34 5 -120 c2 -66 7 -139 11 -161 4 -27 3 -44 -4 -48 -8 -5 -11 -86 -11 -255
0 -235 -1 -249 -20 -266 -28 -26 -28 -126 0 -162 18 -23 20 -41 20 -171 l0
-144 30 -35 c35 -39 33 -59 -6 -106 l-24 -29 0 -343 c0 -218 4 -346 10 -350
13 -8 13 -82 0 -90 -17 -10 -11 -72 10 -110 15 -27 20 -54 20 -110 0 -71 2
-76 46 -142 46 -67 46 -69 40 -133 -4 -43 -1 -72 7 -86 6 -12 22 -39 34 -61
30 -55 55 -63 190 -63 142 0 175 10 197 61 9 20 36 54 59 75 23 21 51 56 62
78 12 24 28 42 40 44 11 2 66 49 123 105 l102 102 0 57 c0 31 5 60 10 63 6 3
10 17 10 31 0 15 16 42 40 68 22 24 40 48 40 53 0 6 7 16 16 23 40 34 45 72
44 380 -2 283 -1 298 19 334 12 20 21 42 21 49 0 7 14 28 30 47 16 19 30 45
30 56 0 33 -27 91 -51 107 -30 22 -69 82 -69 109 -1 13 -14 39 -30 58 -27 31
-30 41 -30 108 0 64 3 78 29 115 15 23 32 57 36 75 3 18 16 37 28 44 12 6 50
36 84 67 53 47 63 61 63 88 0 19 13 52 30 80 17 26 30 53 30 60 0 7 13 34 30
60 16 26 30 53 30 61 0 8 11 27 25 44 45 54 22 108 -46 108 -19 0 -41 6 -47
12 -10 10 -17 10 -32 0 -11 -7 -53 -12 -96 -12 -61 0 -81 4 -101 20 -50 39
-133 11 -133 -46 0 -11 -19 -36 -44 -57 -35 -29 -56 -38 -100 -43 -67 -8 -86
4 -86 52 0 26 10 46 38 77 63 72 66 81 41 135 -40 84 -88 142 -117 142 -15 0
-33 4 -41 9 -9 6 -21 5 -32 -2 -13 -8 -24 -8 -43 1 -24 11 -26 17 -26 75 0 69
-7 81 -75 132 -33 26 -35 31 -35 86 0 32 -5 61 -11 65 -6 3 -22 30 -35 58 -21
44 -24 66 -24 164 0 103 -2 116 -25 152 -14 23 -25 55 -25 74 0 23 -8 44 -25
62 -23 24 -25 34 -22 104 2 76 1 78 -35 117 -20 23 -39 51 -43 64 -4 13 -21
39 -38 57 -40 41 -78 43 -98 5z"/>
<path d="M7530 5049 c-36 -33 -107 -102 -159 -152 -100 -98 -131 -117 -191
-117 -38 0 -54 -12 -75 -54 -6 -11 -22 -22 -35 -24 -30 -4 -141 -41 -155 -52
-14 -11 -82 -20 -205 -28 -75 -5 -112 -12 -130 -24 -13 -10 -32 -18 -40 -18
-9 0 -34 -16 -55 -36 -107 -99 -125 -117 -125 -128 0 -7 -13 -33 -30 -59 -26
-42 -30 -57 -30 -121 0 -58 -4 -79 -20 -99 -18 -23 -20 -40 -20 -177 0 -137 2
-154 20 -177 17 -22 20 -41 20 -120 0 -96 6 -119 41 -154 24 -24 24 -42 -2
-89 l-22 -38 28 -56 c15 -30 34 -61 42 -67 8 -7 24 -31 35 -53 11 -23 26 -48
33 -56 7 -8 16 -26 20 -40 4 -14 18 -38 31 -53 17 -20 24 -41 24 -72 0 -37 5
-47 30 -65 17 -12 30 -30 30 -40 0 -10 15 -36 33 -58 17 -21 43 -58 57 -82 14
-24 63 -82 108 -129 46 -47 92 -102 103 -122 10 -20 29 -45 42 -55 25 -19 77
-146 77 -187 0 -26 47 -77 73 -77 24 0 84 -64 109 -117 10 -22 28 -49 39 -59
10 -9 19 -22 19 -27 0 -18 50 -77 65 -77 8 0 29 -9 47 -20 18 -11 48 -20 67
-20 29 0 47 -13 140 -108 59 -59 121 -113 137 -121 16 -7 37 -17 46 -22 10 -5
27 -9 38 -9 25 0 90 -35 112 -61 9 -10 23 -19 32 -19 8 0 18 -4 21 -10 3 -5
24 -10 45 -10 30 0 43 -6 64 -31 23 -27 26 -40 26 -107 1 -52 5 -83 15 -96 8
-11 16 -18 18 -15 37 47 58 102 138 364 24 80 70 286 79 359 8 64 17 335 21
625 0 21 -9 47 -23 65 -22 30 -23 37 -23 258 0 221 -1 227 -22 250 -30 32 -29
66 3 109 23 30 25 41 21 97 -3 35 -10 69 -16 75 -16 16 -14 54 5 82 20 31 11
80 -21 115 -53 56 -60 146 -19 228 27 54 27 57 -6 107 -18 28 -19 49 -19 295
0 146 0 275 0 287 -1 12 -21 43 -46 70 -27 30 -45 58 -45 73 0 44 -20 98 -46
130 -23 27 -32 30 -82 30 -47 0 -60 4 -83 26 l-28 26 -43 -21 c-25 -11 -52
-21 -61 -21 -21 0 -37 31 -30 59 3 14 -3 35 -20 59 -13 20 -31 50 -38 67 -16
34 -51 55 -94 55 -23 0 -45 -15 -95 -61z"/>
<path d="M4247 2521 c-73 -68 -83 -73 -121 -54 -27 14 -31 13 -100 -34 -162
-110 -176 -128 -180 -232 -4 -82 1 -95 58 -157 25 -27 46 -55 46 -63 0 -13 29
-45 184 -204 79 -81 116 -131 116 -155 0 -8 22 -34 49 -58 26 -24 54 -57 61
-73 7 -17 33 -44 61 -61 26 -18 51 -40 54 -50 13 -42 46 -70 81 -70 23 0 34
-5 34 -14 0 -8 37 -54 83 -102 45 -47 88 -98 96 -113 30 -59 58 -94 99 -122
24 -16 49 -29 56 -29 6 0 33 -14 59 -30 26 -17 53 -30 60 -30 38 0 176 -127
217 -199 14 -24 45 -66 70 -92 25 -26 54 -63 65 -82 20 -38 51 -57 90 -57 19
0 28 -9 40 -37 17 -41 65 -90 128 -130 21 -13 42 -33 44 -44 6 -22 56 -49 93
-49 14 0 31 -5 38 -12 9 -9 54 -11 161 -9 134 2 151 0 185 -18 46 -26 58 -26
81 -1 20 22 45 26 63 8 8 -8 15 -8 24 -1 7 6 24 13 38 15 17 2 35 19 57 52
l32 50 -21 38 c-12 21 -30 40 -40 44 -10 3 -18 9 -18 13 0 5 -31 39 -70 77
-38 37 -70 75 -70 83 0 9 -12 29 -26 46 -49 57 -67 95 -61 128 3 21 -2 47 -14
72 -10 21 -19 44 -19 51 0 15 -52 60 -80 69 -16 5 -20 15 -20 49 0 35 -6 48
-32 73 -18 17 -45 33 -59 37 -16 3 -31 17 -38 33 -14 33 -80 81 -121 89 -15 4
-43 21 -61 40 -18 19 -41 34 -51 34 -9 0 -46 27 -81 60 -36 33 -68 60 -72 60
-4 0 -19 8 -33 18 -30 20 -97 42 -130 42 -12 0 -28 10 -36 23 -8 12 -32 30
-53 41 -21 10 -45 22 -54 26 -8 4 -36 6 -60 3 -72 -8 -77 1 -71 156 l5 131
-54 52 c-30 28 -63 70 -75 92 -18 35 -26 42 -64 48 -24 4 -47 13 -52 20 -5 7
-5 41 -2 76 6 60 5 65 -22 93 -15 16 -33 29 -39 29 -6 0 -26 18 -44 40 -17 22
-38 40 -45 40 -19 0 -90 79 -110 122 -10 20 -48 66 -86 102 -68 66 -68 66
-125 66 -56 0 -58 -1 -118 -59z"/>
</g>
</svg>
